<?xml version="1.0" encoding="utf-8"?>
<!-- Generator: Adobe Illustrator 24.2.1, SVG Export Plug-In . SVG Version: 6.00 Build 0)  -->
<svg version="1.1" id="Layer_1" xmlns="http://www.w3.org/2000/svg" xmlns:xlink="http://www.w3.org/1999/xlink" x="0px" y="0px"
	 viewBox="0 0 40 40" style="enable-background:new 0 0 40 40;" xml:space="preserve">
<style type="text/css">
	.st0{fill:#345863;}
	.st1{fill:#1E4751;}
	.st2{fill:#00AF80;}
	.st3{fill:#008662;}
	.st4{fill:#F6C863;}
	.st5{fill:#EAB54E;}
	.st6{fill:#EF5261;}
	.st7{fill:#DA364C;}
</style>
<path class="st0" d="M30.9,30.1H9.1c-0.4,0-0.8,0.2-1,0.6l-4,7.6C3.6,39.1,4.2,40,5,40H35c0.9,0,1.4-0.9,1-1.7l-4-7.6
	C31.8,30.3,31.4,30.1,30.9,30.1z"/>
<path class="st1" d="M36,38.3l-4-7.6c-0.2-0.4-0.6-0.6-1-0.6h-3.4l5.2,9.9H35C35.8,40,36.4,39.1,36,38.3z"/>
<path class="st2" d="M20.4,0c-0.1,0-0.3,0-0.4,0s-0.3,0-0.4,0C12.2,0.2,6.2,6.3,6.2,13.8C6.2,26.5,20,36.5,20,36.5
	c0,0,13.8-10,13.8-22.8C33.8,6.3,27.8,0.2,20.4,0z M20,22.7c-5.1,0-9.3-4.2-9.3-9.3c0-5.1,4.2-9.3,9.3-9.3s9.3,4.2,9.3,9.3
	C29.3,18.6,25.1,22.7,20,22.7z"/>
<path class="st3" d="M20.4,0c-0.1,0-0.3,0-0.4,0c-0.1,0-0.3,0-0.4,0c-0.6,0-1.1,0.1-1.7,0.2c6.6,1,11.7,6.8,11.7,13.6
	c0,9.6-7.9,17.7-11.7,21.1c1.3,1.1,2.1,1.7,2.1,1.7c0,0,13.8-10,13.8-22.8C33.8,6.3,27.8,0.2,20.4,0z"/>
<g>
	<path class="st4" d="M20.1,9.4c0,0,0.9-1.9,3.2-1.7c0.1,0,0.2,0.1,0.2,0.1C23.8,8.2,24,8.6,23.9,9c0,0.8-2.8,1.3-2.8,1.3l-0.6-0.1
		L20.1,9.4z"/>
	<path class="st5" d="M22.5,9.7c-0.6,0.2-1.2,0.3-1.8,0.3c0.8-0.7,1.9-1.2,3-1.3c0.1,0,0.2,0.1,0.1,0.2C23.5,9.2,23,9.5,22.5,9.7
		L22.5,9.7z"/>
	<path class="st4" d="M20.1,9.4c0,0-0.9-1.9-3.2-1.7c-0.1,0-0.2,0.1-0.2,0.1c-0.2,0.3-0.4,0.7-0.4,1.1c0,0.8,2.8,1.3,2.8,1.3
		l0.6-0.1L20.1,9.4z"/>
	<path class="st5" d="M17.8,9.7C18.4,9.9,19,10,19.6,10c-0.5-0.4-1-0.7-1.6-1c-0.5-0.2-0.9-0.3-1.4-0.3c-0.1,0-0.2,0.1-0.1,0.2
		C16.7,9.2,17.3,9.5,17.8,9.7z"/>
	<circle class="st5" cx="20.1" cy="10.1" r="0.7"/>
	<path class="st6" d="M14.4,10.1h11.4c0.1,0,0.1,0.1,0.1,0.1v1.9c0,0.1-0.1,0.1-0.1,0.1H14.4c-0.1,0-0.1-0.1-0.1-0.1v-1.9
		C14.3,10.1,14.3,10.1,14.4,10.1z"/>
	<path class="st6" d="M25.3,11.8V19c0,0.1-0.1,0.1-0.1,0.1H15c-0.1,0-0.1-0.1-0.1-0.1v-7.2H25.3z"/>
	<path class="st7" d="M14.8,12.2h10.5v0.5H14.8V12.2z"/>
	<path class="st4" d="M19.2,10.1h1.7v9.1h-1.7V10.1z"/>
	<path class="st5" d="M19.2,12.2h1.7v0.5h-1.7V12.2z"/>
</g>
</svg>
